HIERARCHY
ROOT Hips
{
	OFFSET 0.000000 0.000000 0.000000
	CHANNELS 6 Xposition Yposition Zposition Xrotation Yrotation Zrotation
	JOINT LeftUpLeg_virtual
	{
		OFFSET 0.000000 0.000000 0.000000
		CHANNELS 3 Xrotation Yrotation Zrotation
		JOINT LeftUpLeg
		{
			OFFSET 10.205400 -3.823500 0.155100
			CHANNELS 3 Xrotation Yrotation Zrotation
			JOINT LeftLeg
			{
				OFFSET 0.708757 -12.982077 0.567790
				CHANNELS 3 Xrotation Yrotation Zrotation
				JOINT LeftFoot
				{
					OFFSET -0.708756 -10.717838 -2.184338
					CHANNELS 3 Xrotation Yrotation Zrotation
					JOINT LeftToeBase
					{
						OFFSET 0.108149 -7.191104 7.560241
						CHANNELS 3 Xrotation Yrotation Zrotation
						JOINT LeftToe_End
						{
							OFFSET 0.070230 0.081724 4.490308
							CHANNELS 3 Xrotation Yrotation Zrotation
							End Site
							{
								OFFSET 0 0 0
							}
						}
					}
				}
			}
		}
	}
	JOINT RightUpLeg_virtual
	{
		OFFSET 0.000000 0.000000 0.000000
		CHANNELS 3 Xrotation Yrotation Zrotation
		JOINT RightUpLeg
		{
			OFFSET -10.205400 -3.823500 0.005500
			CHANNELS 3 Xrotation Yrotation Zrotation
			JOINT RightLeg
			{
				OFFSET -0.708756 -12.982134 0.610632
				CHANNELS 3 Xrotation Yrotation Zrotation
				JOINT RightFoot
				{
					OFFSET 0.708754 -10.717769 -1.945823
					CHANNELS 3 Xrotation Yrotation Zrotation
					JOINT RightToeBase
					{
						OFFSET -0.108140 -7.191069 7.372968
						CHANNELS 3 Xrotation Yrotation Zrotation
						JOINT RightToe_End
						{
							OFFSET -0.070227 0.081735 4.479403
							CHANNELS 3 Xrotation Yrotation Zrotation
							End Site
							{
								OFFSET 0 0 0
							}
						}
					}
				}
			}
		}
	}
	JOINT Spine_virtual
	{
		OFFSET 0.000000 0.000000 0.000000
		CHANNELS 3 Xrotation Yrotation Zrotation
		JOINT Spine
		{
			OFFSET 0.000000 6.876099 0.125700
			CHANNELS 3 Xrotation Yrotation Zrotation
			JOINT Spine1
			{
				OFFSET 0.000000 5.730043 0.104720
				CHANNELS 3 Xrotation Yrotation Zrotation
				JOINT Spine1_split
				{
					OFFSET 0.000000 5.730043 0.104720
					CHANNELS 3 Xrotation Yrotation Zrotation
					JOINT Spine2
					{
						OFFSET 0.000000 5.730043 0.104720
						CHANNELS 3 Xrotation Yrotation Zrotation
						JOINT Neck_virtual
						{
							OFFSET 0.000000 0.000000 0.000000
							CHANNELS 3 Xrotation Yrotation Zrotation
							JOINT Neck
							{
								OFFSET 0.000000 10.314075 0.188496
								CHANNELS 3 Xrotation Yrotation Zrotation
								JOINT Head
								{
									OFFSET 0.000000 7.643700 -2.377400
									CHANNELS 3 Xrotation Yrotation Zrotation
									JOINT HeadTop_End
									{
										OFFSET 0.000000 43.788605 -13.619600
										CHANNELS 3 Xrotation Yrotation Zrotation
										End Site
										{
											OFFSET 0 0 0
										}
									}
								}
							}
						}
						JOINT LeftShoulder_virtual
						{
							OFFSET 0.000000 0.000000 0.000000
							CHANNELS 3 Xrotation Yrotation Zrotation
							JOINT LeftShoulder
							{
								OFFSET 2.196100 4.412489 0.087492
								CHANNELS 3 Xrotation Yrotation Zrotation
								JOINT LeftShoulder_split
								{
									OFFSET 2.196100 4.412489 0.087492
									CHANNELS 3 Xrotation Yrotation Zrotation
									JOINT LeftArm
									{
										OFFSET 8.771219 -2.981674 -0.026999
										CHANNELS 3 Xrotation Yrotation Zrotation
										JOINT LeftForeArm
										{
											OFFSET 8.512804 0.000000 -0.000000
											CHANNELS 3 Xrotation Yrotation Zrotation
											JOINT LeftHand
											{
												OFFSET 18.484802 0.000000 -0.000000
												CHANNELS 3 Xrotation Yrotation Zrotation
												End Site
												{
													OFFSET 0 0 0
												}
											}
										}
									}
								}
							}
						}
						JOINT RightShoulder_virtual
						{
							OFFSET 0.000000 0.000000 0.000000
							CHANNELS 3 Xrotation Yrotation Zrotation
							JOINT RightShoulder
							{
								OFFSET -2.196100 4.412496 0.070690
								CHANNELS 3 Xrotation Yrotation Zrotation
								JOINT RightShoulder_split
								{
									OFFSET -2.196100 4.412496 0.070690
									CHANNELS 3 Xrotation Yrotation Zrotation
									JOINT RightArm
									{
										OFFSET -8.771282 -2.981682 -0.094208
										CHANNELS 3 Xrotation Yrotation Zrotation
										JOINT RightForeArm
										{
											OFFSET -8.494598 0.000000 0.000000
											CHANNELS 3 Xrotation Yrotation Zrotation
											JOINT RightHand
											{
												OFFSET -18.483803 0.000000 0.000001
												CHANNELS 3 Xrotation Yrotation Zrotation
												End Site
												{
													OFFSET 0 0 0
												}
											}
										}
									}
								}
							}
						}
					}
				}
			}
		}
	}
}
MOTION
Frames: 10
Frame Time: 0.03333333
0.015273 31.519878 -0.463938 0.000000 0.000000 0.000000 7.265546 -17.093790 1.646957 -41.662064 3.983803 12.857036 38.746618 4.488228 1.622183 -6.344550 -0.163855 -9.747903 1.776245 -1.417149 -0.662721 0.000000 0.000000 0.000000 7.909495 -17.844262 2.097757 -5.977920 -9.854776 -15.229971 27.518002 -0.545946 1.002102 -28.019895 -10.392328 16.613677 0.797712 1.703524 0.311306 0.000000 0.000000 0.000000 7.557380 -13.979130 1.683137 25.089571 4.603986 -1.187350 2.529933 2.072413 -1.662652 0.500761 1.458224 0.406043 0.000000 0.000000 0.000000 3.627176 1.666096 -0.953037 -14.292527 1.925240 1.708399 -11.333648 10.351744 -2.183605 0.000000 0.000000 0.000000 3.470046 2.000865 -1.115247 6.923342 -21.175217 8.718697 -0.780292 -0.803912 0.935371 -31.449155 -10.667620 -84.759540 -0.325276 -44.688907 -2.990513 0.000000 0.000000 0.000000 3.873670 1.929881 -0.858553 12.144026 25.664677 -20.372877 -4.967764 1.746279 -1.120959 -43.123140 1.044884 85.867574 -0.552224 61.023314 7.577983 0.000000 0.000000 0.000000 
0.017567 31.526648 -0.485275 0.000000 0.000000 0.000000 7.262646 -17.348093 1.681222 -41.533308 3.891556 12.914674 38.929121 4.681526 1.528749 -6.606682 -0.064682 -9.902882 1.886512 -1.422073 -0.678011 0.000000 0.000000 0.000000 7.922799 -17.969714 2.136046 -6.193313 -10.003805 -15.250013 27.443765 -0.504620 0.967396 -27.948026 -10.249018 16.384314 0.943163 1.650445 0.387639 0.000000 0.000000 0.000000 7.533962 -14.271250 1.646713 25.094685 4.563316 -1.119641 2.519829 2.070466 -1.596642 0.481408 1.370886 0.391356 0.000000 0.000000 0.000000 3.652676 1.707186 -0.932381 -14.197762 2.171625 1.600702 -11.428567 10.810951 -2.642796 0.000000 0.000000 0.000000 3.378370 2.015710 -1.084044 6.901086 -20.895584 8.478117 -0.587778 -1.489021 1.060489 -31.960241 -10.829354 -84.545168 -0.709604 -44.890687 -3.257096 0.000000 0.000000 0.000000 3.849808 1.949101 -0.783291 12.031924 25.638029 -20.145532 -5.102549 1.462857 -1.010470 -43.007345 0.269643 86.027769 -1.282765 61.417143 8.171236 0.000000 0.000000 0.000000 
0.022587 31.527018 -0.518707 0.000000 0.000000 0.000000 7.188514 -18.057738 1.720306 -41.223842 3.810063 13.163071 39.212311 5.083783 1.378904 -7.106760 0.226322 -10.150500 2.015233 -1.411241 -0.737391 0.000000 0.000000 0.000000 7.849053 -18.568713 2.174747 -6.767933 -10.076265 -15.366387 27.600571 -0.207441 0.892165 -27.934755 -9.939021 16.153595 0.914701 1.653000 0.348073 0.000000 0.000000 0.000000 7.438072 -15.022554 1.633129 25.057922 4.533317 -0.963507 2.511947 2.083752 -1.538483 0.461347 1.258666 0.391754 0.000000 0.000000 0.000000 3.700347 1.747600 -0.913967 -14.111251 2.872750 1.253796 -11.581577 11.869398 -3.413591 0.000000 0.000000 0.000000 3.302827 2.063236 -1.044518 6.781438 -20.624502 7.800494 -0.375818 -2.108641 0.976378 -32.145312 -11.687233 -83.352623 -0.657313 -45.300058 -3.186058 0.000000 0.000000 0.000000 3.858437 1.964027 -0.742180 11.709093 25.460367 -19.651409 -5.254553 1.316245 -0.884976 -43.351941 0.907039 85.693247 -1.867835 61.166311 8.517448 0.000000 0.000000 0.000000 
0.037241 31.523125 -0.568464 0.000000 0.000000 0.000000 7.033693 -19.075511 1.767248 -40.774300 3.790621 13.540435 39.492656 5.665807 1.171459 -7.730023 0.643205 -10.450204 2.122393 -1.386252 -0.819378 0.000000 0.000000 0.000000 7.707131 -19.551311 2.231956 -7.659773 -10.093975 -15.584301 28.039494 0.340767 0.787733 -27.936442 -9.487624 15.945845 0.779186 1.693567 0.219939 0.000000 0.000000 0.000000 7.255360 -16.153565 1.654503 24.999710 4.508620 -0.754346 2.525222 2.107408 -1.489516 0.406595 1.098003 0.471616 0.000000 0.000000 0.000000 3.743688 1.783846 -0.884670 -14.045543 3.904635 0.704647 -11.719481 13.299827 -4.329819 0.000000 0.000000 0.000000 3.271305 2.123193 -1.010828 6.583452 -20.364817 6.734996 -0.189390 -2.495251 0.737989 -31.939150 -13.160233 -81.355435 -0.301134 -45.704160 -2.925730 0.000000 0.000000 0.000000 3.900585 1.981634 -0.731767 11.232090 25.177669 -18.973417 -5.400450 1.309354 -0.682530 -44.119248 2.942270 84.997224 -2.273826 60.364044 8.631825 0.000000 0.000000 0.000000 
0.062227 31.516642 -0.628115 0.000000 0.000000 0.000000 6.835613 -20.269476 1.833658 -40.196558 3.856106 13.993181 39.707305 6.377304 0.920180 -8.362516 1.097711 -10.782482 2.207631 -1.353691 -0.898556 0.000000 0.000000 0.000000 7.516861 -20.794318 2.322998 -8.782457 -10.085784 -15.879150 28.712135 1.081532 0.644995 -27.940981 -8.957413 15.703319 0.648666 1.746791 0.039400 0.000000 0.000000 0.000000 7.014020 -17.537733 1.705462 24.949088 4.474518 -0.539259 2.570385 2.134415 -1.448183 0.508361 0.929386 0.545158 0.000000 0.000000 0.000000 3.766300 1.813322 -0.845072 -14.029929 5.123179 -0.004196 -11.823445 14.689051 -5.170832 0.000000 0.000000 0.000000 3.270668 2.181053 -0.991482 6.324773 -20.124280 5.404876 -0.135319 -2.545556 0.567959 -31.323347 -15.168172 -78.761971 0.115654 -46.171409 -2.680206 0.000000 0.000000 0.000000 3.955759 2.007198 -0.745410 10.677549 24.853680 -18.216413 -5.491430 1.230874 -0.461002 -45.122183 6.023078 84.059097 -2.569928 59.211149 8.626036 0.000000 0.000000 0.000000 
0.089621 31.506525 -0.701319 0.000000 0.000000 0.000000 6.631181 -21.533677 1.934657 -39.528921 3.974400 14.469684 39.840514 7.147583 0.661643 -8.894672 1.493751 -11.149665 2.263015 -1.315991 -0.943579 0.000000 0.000000 0.000000 7.306415 -22.126282 2.455681 -10.070940 -10.070568 -16.198552 29.560748 1.922671 0.461967 -27.958966 -8.419362 15.333356 0.612600 1.796805 -0.156636 0.000000 0.000000 0.000000 6.752618 -18.989531 1.773611 24.920519 4.412142 -0.360005 2.631808 2.159151 -1.412739 0.554871 0.656219 0.545856 0.000000 0.000000 0.000000 3.766807 1.827131 -0.801364 -14.104561 6.327118 -0.805486 -11.942120 15.540229 -5.701622 0.000000 0.000000 0.000000 3.282323 2.220954 -0.993840 6.036984 -19.877468 3.971157 -0.082956 -2.260839 0.455110 -30.415229 -17.462555 -75.839333 0.391954 -46.859824 -2.626075 0.000000 0.000000 0.000000 4.013784 2.036847 -0.772675 10.115744 24.569063 -17.499496 -5.420068 1.109562 -0.171748 -46.113558 9.608218 82.941398 -2.783850 57.917566 8.626631 0.000000 0.000000 0.000000 
0.116821 31.498247 -0.784742 0.000000 0.000000 0.000000 6.434545 -22.835033 2.068402 -38.792927 4.102635 14.957223 39.881454 7.899460 0.436836 -9.252474 1.770078 -11.596990 2.310138 -1.275786 -0.950356 0.000000 0.000000 0.000000 7.089668 -23.494876 2.616677 -11.474708 -10.060615 -16.504471 30.504274 2.791056 0.248747 -27.939727 -7.914969 14.793963 0.645834 1.844546 -0.328156 0.000000 0.000000 0.000000 6.467381 -20.450215 1.850782 24.912843 4.313874 -0.236063 2.685261 2.166654 -1.386940 0.535067 0.458615 0.518630 0.000000 0.000000 0.000000 3.760520 1.828234 -0.761797 -14.267080 7.345912 -1.630021 -12.212537 15.383529 -5.703210 0.000000 0.000000 0.000000 3.266654 2.240501 -1.023171 5.740873 -19.578257 2.537667 0.041515 -1.893033 0.293824 -29.299900 -19.857677 -72.881233 0.492961 -47.829639 -2.833302 0.000000 0.000000 0.000000 4.033049 2.054231 -0.800647 9.608978 24.429377 -16.857718 -5.092204 1.051758 0.120879 -46.861296 13.152268 81.707606 -2.974359 56.636420 8.767196 0.000000 0.000000 0.000000 
0.150523 31.496685 -0.876314 0.000000 0.000000 0.000000 6.259609 -24.167861 2.212677 -37.998839 4.203514 15.474314 39.818555 8.602983 0.249590 -9.445252 1.915599 -12.146064 2.369729 -1.238949 -0.911886 0.000000 0.000000 0.000000 6.883302 -24.814856 2.769558 -12.913550 -10.053443 -16.741897 31.457075 3.649851 0.004669 -27.811543 -7.467874 14.118410 0.732367 1.890334 -0.453039 0.000000 0.000000 0.000000 6.200172 -21.842269 1.913375 24.910176 4.186097 -0.164715 2.710514 2.145986 -1.375648 0.411372 0.282837 0.557420 0.000000 0.000000 0.000000 3.756566 1.806806 -0.741414 -14.529154 8.024498 -2.466860 -12.756084 13.847339 -5.054459 0.000000 0.000000 0.000000 3.187064 2.232082 -1.076409 5.438852 -19.253076 1.200753 0.141284 -1.644027 0.188337 -27.887859 -22.227995 -70.067858 0.482646 -49.022843 -3.240433 0.000000 0.000000 0.000000 3.972129 2.041958 -0.819942 9.218712 24.539157 -16.322137 -4.628203 1.025609 0.355068 -47.228914 16.235544 80.294925 -3.199827 55.570190 9.170028 0.000000 0.000000 0.000000 
0.188332 31.505560 -0.983269 0.000000 0.000000 0.000000 6.103025 -25.520189 2.330878 -37.177922 4.273169 16.050757 39.651546 9.265614 0.092609 -9.562310 1.950630 -12.739791 2.409839 -1.207374 -0.831011 0.000000 0.000000 0.000000 6.695840 -26.063073 2.880298 -14.332114 -9.993594 -16.846399 32.385769 4.496608 -0.257327 -27.503983 -7.073052 13.348776 0.933914 1.938488 -0.526449 0.000000 0.000000 0.000000 5.958967 -23.144564 1.934603 24.885367 4.036972 -0.121499 2.700012 2.083356 -1.377430 0.224225 0.067852 0.583145 0.000000 0.000000 0.000000 3.759010 1.753618 -0.745577 -14.857357 8.256007 -3.320392 -13.578682 10.671126 -3.756889 0.000000 0.000000 0.000000 3.077668 2.187409 -1.146594 5.157523 -18.978924 0.046191 0.090581 -1.434202 0.109458 -26.240501 -24.466223 -67.482829 0.490712 -50.113310 -3.676495 0.000000 0.000000 0.000000 3.857106 1.990122 -0.834913 8.983948 24.962494 -15.940517 -4.155911 1.013052 0.494562 -47.249070 18.718683 78.627662 -3.478334 54.786966 9.868193 0.000000 0.000000 0.000000 
0.223670 31.523603 -1.104708 0.000000 0.000000 0.000000 5.936966 -26.894894 2.387009 -36.306984 4.346958 16.733668 39.397549 9.918306 -0.057094 -9.708223 1.925210 -13.329176 2.444603 -1.180836 -0.739349 0.000000 0.000000 0.000000 6.519471 -27.288788 2.926937 -15.727911 -9.823354 -16.789674 33.267567 5.331047 -0.540053 -26.980523 -6.717223 12.544093 1.206629 1.993310 -0.558860 0.000000 0.000000 0.000000 5.741308 -24.382945 1.897133 24.818029 3.878577 -0.078752 2.670352 1.976489 -1.391829 0.126371 -0.140563 0.585066 0.000000 0.000000 0.000000 3.768017 1.678361 -0.768296 -15.170520 7.996240 -4.212450 -14.566266 5.765371 -1.945637 0.000000 0.000000 0.000000 2.995647 2.104794 -1.221159 4.925743 -18.850062 -0.908597 -0.111672 -1.155999 -0.029744 -24.440714 -26.427797 -65.155504 0.574639 -50.659984 -3.949781 0.000000 0.000000 0.000000 3.736068 1.903046 -0.846678 8.939952 25.743594 -15.754801 -3.740000 0.976720 0.565472 -47.040244 20.645355 76.721486 -3.798719 54.274138 10.797133 0.000000 0.000000 0.000000 
